# xmcd
#
# Track frame offsets: 
#        150
#        12323
#        24824
#        36934
#        49238
#        60735
#        72478
#        84592
#        97479
#        110516
#        122985
#        135095
#        148375
#        161281
#        173938
#        186753
#        198475
#        210662
#        223274
#        235616
#        247758
#        260624
#        273711
#        285768
#        297861
#
# Disc length: 4142 seconds
#
# Revision: 3
# Processed by: cddbd v1.5.2PL0 Copyright (c) Steve Scherf et al.
# Submitted via: ExactAudioCopy v0.95b4
#
DISCID=7b102c19
DTITLE=Hoosier Hot Shots - Everybody Stomp [disc 3: Are You Havin' Any
DTITLE=Fun?]
DYEAR=2003
DGENRE=Novelty
TTITLE0=Like a Monkey Likes Cocoanuts
TTITLE1=From the Indies to the Andies in His Undies
TTITLE2=Look on the Bright Side
TTITLE3=Willie Willie Will Ya
TTITLE4=Are You Havin' Any Fun?
TTITLE5=Put On Your Old Red Flannels
TTITLE6=Sam the College Leader Man
TTITLE7=The Pants My Pappy Gave to Me
TTITLE8=He'd Have to Get Under Get Out and Get Under
TTITLE9=In an Old Dutch Garden (by an Old Dutch Mill)
TTITLE10=Connie's Got Connections in Connecticut
TTITLE11=Shirley
TTITLE12=Big Noise from Kokomo
TTITLE13=Ma She's Makin' Eyes at Me
TTITLE14=Swanee
TTITLE15=Moving Day in Jungle Town
TTITLE16=It's a Lonely Trail
TTITLE17=Avalon
TTITLE18=Who's Sorry Now
TTITLE19=No No Nora
TTITLE20=O-Hi-O
TTITLE21=Diga Diga Do
TTITLE22=The Kitten with the Big Green Eyes
TTITLE23=Everybody Loves My Baby
TTITLE24=The Guy Who Stole My Wife
EXTD=Ken Trietsch (1903/1987): guitar, vocals, leader\nPaul "Hezzie" T
EXTD=rietsch (1905/1979): whistle, "zither", washboard, percussion, vo
EXTD=cals\nCharles "Gabe" Ward (1904/1992): clarinet, vocals\nFrank Ke
EXTD=ttering (1909/1973) [left HHS 1943 when drafted], Gil Taylor [joi
EXTD=ned HHS 1943]: bass, vocals\nDisc 3 recorded 1938-09-14/1940-08-0
EXTD=6 in Chicago US-IL.\nSee <http://www.propermusic.com/products.asp
EXTD=?recnumber=70> for session and discographical details.\nCompiled 
EXTD=and annotated by Adam Komorowski - produced for release by Joop Vi
EXTD=sser Productions.\nDigital remastering by Peter Rynston at Tall O
EXTD=rder Mastering.\nDisc 3/4 ("Are You Havin' Any Fun?"): Proper Rec
EXTD=ords P1351 (2003), UPC 805520013512.\n4CD: Proper Records PROPERB
EXTD=OX 63 (2003-08, 2005), UPC 805520020633.
EXTT0=
EXTT1=
EXTT2=(Brown/McFaddin)
EXTT3=
EXTT4=(Jack Yellen/Sammy Fain)
EXTT5=
EXTT6=(Walter Donaldson)
EXTT7=
EXTT8=
EXTT9=(Mack Gordon/Wilhelm Grosz)
EXTT10=
EXTT11=(Barris/Cavanaugh/Johnson)
EXTT12=
EXTT13=(Sidney Clare/Con Conrad)
EXTT14=(Irving Caesar/George Gershwin)
EXTT15=
EXTT16=(De Leath/Kenny/Kenny)
EXTT17=(B.G. De Sylva/Al Jolson/Vincent Rose)
EXTT18=(Eric P.Westphal)
EXTT19=(Ernie Erdman/Ted Fio Rito/Gus Kahn)
EXTT20=(Abe Olman/Jack Yellen)
EXTT21=(Dorothy Fields/Jimmy McHugh)
EXTT22=
EXTT23=(Jack Dalmer/Spencer Williams)
EXTT24=
PLAYORDER=
